<svg width="427" height="179" viewBox="0 0 427 179" fill="none" xmlns="http://www.w3.org/2000/svg">
<path d="M328.14 116.13C335.32 128.57 348.37 136.01 364.14 136.6C364.71 136.61 365.26 136.63 365.85 136.63H366.05C366.62 136.63 367.19 136.62 367.74 136.6C380.54 136.12 391.77 131.04 399.35 122.31L399.67 121.95L414.81 104.39C416.82 102.1 418.58 99.54 420.05 96.8C424.79 87.92 426.79 75.41 426.2 58.55C425.84 48.4 423.69 34.18 415.54 24.1C409.28 16.35 400.09 11.19 389.7 9.6C386.88 9.18 384.15 8.95999 381.55 8.95999C378.95 8.95999 376.22 9.18 373.42 9.6C363.7 11.09 354.94 15.75 348.76 22.7L343.78 28.5C343.72 28.54 343.68 28.6 343.6 28.68C342.71 29.73 341.05 29.61 340.34 28.43C339.41 26.88 338.41 25.44 337.33 24.11C331.07 16.34 321.9 11.2 311.49 9.60999C308.69 9.18999 305.94 8.96999 303.36 8.96999C300.78 8.96999 298.03 9.18999 295.21 9.60999C285.56 11.08 276.86 15.68 270.65 22.6L265.01 28.59C264.08 29.57 262.46 29.42 261.75 28.27C260.86 26.77 259.9 25.38 258.86 24.11C252.6 16.34 243.41 11.2 233.02 9.60999C230.2 9.18999 227.47 8.96999 224.87 8.96999C222.27 8.96999 219.54 9.18999 216.74 9.60999C207.09 11.08 198.37 15.68 192.17 22.6L185.75 29.43C184.8 30.42 183.15 30.25 182.48 29.05C181.44 27.25 180.32 25.6 179.11 24.1C172.85 16.35 163.68 11.19 153.27 9.6C150.47 9.18 147.72 8.95999 145.14 8.95999C142.56 8.95999 139.8 9.18 136.99 9.6C127.27 11.09 118.52 15.75 112.35 22.7L108.9 26.7C108.46 27.21 107.62 26.89 107.62 26.22V20.02C107.62 15.2 103.72 11.3 98.9 11.3H75.47C72.8 11.3 70.32 12.5 68.65 14.58L58.17 27.46C57.6 28.15 56.49 27.75 56.49 26.86V20.01C56.49 15.19 52.59 11.29 47.77 11.29H24.34C21.67 11.29 19.19 12.49 17.55 14.53L2.32 32.91C0.83 34.72 0 37.04 0 39.42V124.28C0 129.8 4.31 134.29 9.61 134.29H31.01C33.67 134.29 36.13 133.18 37.92 131.21L50.08 117.85C50.55 117.34 51.41 117.67 51.41 118.36V124.27C51.41 129.79 55.72 134.28 61 134.28H82.4C85.07 134.28 87.54 133.17 89.35 131.17L95.64 124.13C96.19 123.52 97.16 123.47 97.74 124.07C105.23 131.63 115.94 136.13 127.71 136.58C128.26 136.59 128.83 136.61 129.4 136.61H129.62C130.19 136.61 130.74 136.6 131.31 136.58C144.11 136.1 155.34 131.02 162.92 122.29L168.09 116.29C168.35 116.04 168.7 115.9 169.08 115.9C169.53 115.9 169.96 116.12 170.2 116.47H170.21C177.44 128.7 190.39 136 206.01 136.59C206.58 136.6 207.13 136.62 207.72 136.62H207.92C208.49 136.62 209.06 136.61 209.61 136.59C221.8 136.14 232.68 131.45 240.24 123.39L246.63 116.59L246.59 116.63C246.85 116.34 247.23 116.15 247.67 116.15C248.21 116.15 248.68 116.44 248.93 116.89C256.2 128.86 269.03 136 284.48 136.58C285.03 136.59 285.6 136.61 286.17 136.61H286.39C286.94 136.61 287.51 136.6 288.08 136.58C300.27 136.13 311.13 131.44 318.68 123.4L325.8 115.84H325.79C326.05 115.56 326.43 115.39 326.84 115.39C327.37 115.39 327.83 115.68 328.08 116.11L328.14 116.13Z" fill="#3A308C"/>
<path d="M343.13 67.41C342.5 66.9 341.7 66.67 340.9 66.67H315.09C313.85 66.67 312.74 67.43 312.33 68.55C310.86 72.65 307.82 74.83 303.54 74.83C299.04 74.83 293.69 72.46 293.69 61.17V58.29C293.69 47.01 299.05 44.64 303.54 44.64C308.03 44.64 310.87 46.82 312.34 50.93C312.75 52.07 313.84 52.83 315.1 52.83H340.06C340.98 52.83 342.26 52.29 342.83 51.57C343.41 50.84 343.65 49.93 343.52 49.02C342.09 39.52 339.07 31.87 334.57 26.29C328.91 19.27 320.57 14.61 311.11 13.17C308.58 12.79 306.03 12.59 303.53 12.56C301.05 12.59 298.49 12.79 295.97 13.17C286.51 14.62 278.17 19.27 272.51 26.29C271.47 27.57 270.54 28.93 269.71 30.36C267.46 34.18 266.79 38.71 267.78 43.03C268.17 44.72 268.51 46.48 268.79 48.29C269.02 49.78 268.83 51.33 268.15 52.67C267.29 54.41 265.81 55.63 264.11 56.23C263.31 56.49 262.75 57.24 262.72 58.07C262.71 58.22 262.71 58.35 262.69 58.48C262.66 59.37 262.65 60.25 262.63 61.09C262.62 62.05 263.29 62.84 264.22 63.06C265.62 63.4 266.89 64.15 267.88 65.26C269.15 66.69 269.76 68.62 269.66 70.54C269.35 76.6 268.59 81.94 267.37 86.61C266.65 89.37 267.05 92.29 268.39 94.8C277.46 111.78 294.83 114.22 301.87 114.48C302.4 114.51 302.92 114.51 303.45 114.51H303.63C304.17 114.51 304.7 114.51 305.21 114.48C312.26 114.22 329.63 111.78 338.7 94.8C341.94 88.73 343.85 80.43 344.35 70.16C344.41 69.09 343.97 68.1 343.14 67.4L343.13 67.41Z" fill="white"/>
<path d="M264.66 67.41C264.05 66.9 263.24 66.67 262.44 66.67H236.61C235.37 66.67 234.27 67.43 233.87 68.55C232.4 72.65 229.36 74.83 225.08 74.83C220.58 74.83 215.21 72.46 215.21 61.17V58.29C215.21 47.01 220.58 44.64 225.08 44.64C229.58 44.64 232.41 46.82 233.87 50.93C234.28 52.07 235.39 52.83 236.63 52.83H261.61C262.53 52.83 263.8 52.29 264.38 51.57C264.95 50.84 265.2 49.93 265.05 49.02C263.62 39.52 260.61 31.87 256.1 26.29C250.44 19.27 242.11 14.61 232.64 13.17C230.11 12.79 227.57 12.59 225.06 12.56C222.58 12.59 220.02 12.79 217.51 13.17C208.04 14.62 199.71 19.27 194.05 26.29C192.31 28.44 190.87 30.8 189.68 33.28C187.99 36.83 187.56 40.83 188.35 44.67C189.36 49.53 189.8 54.28 189.94 58.35C190.29 68.12 189.76 76.41 188.33 83.39C187.54 87.26 188.04 91.29 189.89 94.76C189.89 94.79 189.9 94.8 189.92 94.82C198.97 111.8 216.34 114.24 223.4 114.5C223.93 114.53 224.45 114.53 224.96 114.53H225.15C225.68 114.53 226.2 114.53 226.73 114.5C233.78 114.24 251.14 111.8 260.21 94.82C263.47 88.75 265.36 80.45 265.87 70.18C265.91 69.11 265.48 68.12 264.64 67.42L264.66 67.41Z" fill="white"/>
<path d="M75.65 112.2H99.1C101.82 112.2 104.02 110 104.02 107.28V19.8C104.02 17.08 101.82 14.88 99.1 14.88H75.65C72.93 14.88 70.73 17.08 70.73 19.8V36.36C70.73 41.28 66.73 45.28 61.81 45.28C56.89 45.28 52.89 41.28 52.89 36.36V19.8C52.89 17.08 50.69 14.88 47.97 14.88H24.52C21.8 14.88 19.6 17.08 19.6 19.8V107.28C19.6 110 21.8 112.2 24.52 112.2H47.97C50.69 112.2 52.89 110 52.89 107.28V82.89C52.89 77.97 56.89 73.97 61.81 73.97C66.73 73.97 70.73 77.97 70.73 82.89V107.28C70.73 110 72.93 112.2 75.65 112.2Z" fill="white"/>
<path d="M155.18 61.16C155.18 72.46 149.82 74.82 145.31 74.82C140.8 74.82 135.46 72.45 135.46 61.16V58.28C135.46 47 140.82 44.63 145.31 44.63C149.8 44.63 155.18 47 155.18 58.28V61.16ZM186.16 58.48C185.82 48.92 183.84 35.56 176.35 26.27C170.69 19.26 162.35 14.61 152.89 13.16C150.36 12.77 147.81 12.58 145.31 12.56C142.81 12.57 140.27 12.76 137.75 13.16C128.29 14.61 119.95 19.26 114.29 26.27C112.74 28.2 111.43 30.3 110.32 32.5C108.64 35.81 107.81 39.49 107.81 43.22V85.06C107.81 88.43 108.57 91.79 110.15 94.77C110.16 94.78 110.16 94.8 110.18 94.81C119.25 111.79 136.62 114.23 143.67 114.49C144.18 114.52 144.71 114.52 145.23 114.52H145.41C145.95 114.52 146.48 114.52 146.99 114.49C154.04 114.23 171.41 111.79 180.48 94.81C184.89 86.55 186.76 74.66 186.17 58.47L186.16 58.48Z" fill="white"/>
<path d="M391.58 61.16C391.58 72.46 386.21 74.82 381.71 74.82C377.21 74.82 371.84 72.45 371.84 61.16V58.28C371.84 47 377.21 44.63 381.71 44.63C386.21 44.63 391.58 47 391.58 58.28V61.16ZM422.56 58.48C422.21 48.92 420.24 35.56 412.73 26.27C407.07 19.26 398.74 14.61 389.27 13.16C386.74 12.77 384.2 12.58 381.69 12.56C379.21 12.57 376.65 12.76 374.14 13.16C364.67 14.61 356.34 19.26 350.68 26.27C349.31 27.96 348.13 29.79 347.1 31.72C345.49 34.76 345.06 38.32 345.9 41.66C346.44 43.76 346.88 45.98 347.24 48.3C347.46 49.82 347.25 51.39 346.55 52.75C345.62 54.52 344.07 55.77 342.26 56.31C341.46 56.56 340.89 57.29 340.86 58.12C340.86 58.24 340.85 58.35 340.85 58.47C340.82 59.2 340.81 60.24 340.79 61.13C340.94 62.08 341.65 62.84 342.57 63.06C343.66 63.29 344.69 63.79 345.56 64.51C347.31 66 348.23 68.12 348.11 70.35C347.8 76.64 347.02 82.13 345.73 86.93C345.03 89.56 345.25 92.38 346.52 94.78C346.52 94.78 346.53 94.79 346.55 94.81C355.6 111.79 372.97 114.23 380.03 114.49C380.56 114.52 381.08 114.52 381.59 114.52H381.78C382.32 114.52 382.83 114.52 383.36 114.49C390.41 114.23 407.77 111.79 416.84 94.81C421.26 86.55 423.13 74.66 422.55 58.47L422.56 58.48Z" fill="white"/>
<path d="M340.78 60.78C340.78 60.9 340.79 61.03 340.81 61.14L340.78 60.78Z" fill="#403091"/>
<path d="M108.44 177.21C108.44 167.67 108.71 159.87 109.24 153.81C109.26 153.3 109.59 152.99 110.22 152.87C111.02 152.77 112.12 152.72 113.53 152.72C114.94 152.72 115.99 152.77 116.77 152.87C117.4 152.99 117.73 153.31 117.75 153.81C118.31 160.16 118.59 167.96 118.59 177.21C118.59 177.5 118.49 177.74 118.28 177.94C118.07 178.13 117.83 178.25 117.53 178.3C116.63 178.4 115.29 178.45 113.49 178.45C111.69 178.45 110.35 178.4 109.45 178.3C108.77 178.2 108.43 177.84 108.43 177.21H108.44Z" fill="white"/>
<path d="M123.17 166.6C123.17 162.36 124.49 158.96 127.12 156.41C129.75 153.85 133.21 152.58 137.51 152.58C140.66 152.58 143.35 153.14 145.59 154.25C145.95 154.47 146.14 154.8 146.14 155.23V155.48C146.07 156.01 145.95 157.07 145.78 158.66C145.61 160.25 145.49 161.31 145.42 161.84C145.37 162.25 145.25 162.48 145.06 162.53C144.87 162.58 144.74 162.6 144.7 162.6C144.46 162.6 144.23 162.48 144.01 162.24C142.34 160.57 140.35 159.73 138.04 159.73C136.34 159.73 135.03 160.27 134.11 161.35C133.19 162.43 132.73 164 132.73 166.06C132.73 167.66 133.24 168.86 134.26 169.66C135.28 170.46 136.68 170.86 138.48 170.86C141.63 170.86 144.3 169.76 146.48 167.55C146.65 167.31 146.86 167.19 147.1 167.19C147.2 167.19 147.36 167.23 147.59 167.3C147.82 167.37 147.95 167.66 147.97 168.17C148.04 169.07 148.16 171.63 148.33 175.87V175.94C148.33 176.38 148.11 176.72 147.68 176.96C146.54 177.37 144.98 177.74 143.01 178.07C141.03 178.4 139.17 178.56 137.43 178.56C127.95 178.56 123.21 174.58 123.21 166.61L123.17 166.6Z" fill="white"/>
<path d="M152.96 177.25C153.06 167.63 153.37 159.81 153.91 153.78C153.98 153.22 154.33 152.92 154.96 152.87C156.49 152.77 159.58 152.72 164.24 152.72C168.9 152.72 171.82 152.77 173.66 152.87C174.27 152.92 174.61 153.25 174.68 153.85C174.8 155.76 174.89 158.15 174.93 161.01C174.93 161.47 174.82 161.74 174.6 161.81C174.38 161.88 174.24 161.92 174.16 161.92C173.89 161.92 173.63 161.8 173.36 161.56C171.35 159.99 168.87 159.2 165.94 159.2C164.78 159.2 163.88 159.39 163.25 159.76C162.62 160.14 162.3 160.63 162.3 161.23V161.41C162.3 162.52 163.51 163.08 165.94 163.08C166.42 163.08 166.95 163.07 167.5 163.04C168.06 163.02 168.68 162.99 169.37 162.95C170.06 162.91 170.61 162.88 171.03 162.86H171.14C171.41 162.86 171.64 162.94 171.85 163.11C172.06 163.28 172.16 163.51 172.16 163.8L172.12 166.74C172.12 167.1 172.03 167.33 171.85 167.41C171.67 167.49 171.53 167.54 171.43 167.54C171.28 167.54 171.13 167.48 170.96 167.36C169.41 166.61 167.81 166.23 166.16 166.23H166.01C163.54 166.28 162.3 167.04 162.3 168.52V169.1C162.3 170.02 162.73 170.72 163.59 171.19C164.45 171.66 165.63 171.9 167.14 171.9C169.03 171.9 170.53 171.62 171.65 171.06C172.77 170.5 173.8 169.51 174.74 168.08C174.89 167.84 175.04 167.7 175.21 167.66C175.38 167.62 175.5 167.61 175.57 167.61C175.74 167.61 175.92 167.68 176.12 167.81C176.31 167.94 176.42 168.17 176.45 168.48C176.72 170.71 176.91 173.64 177.03 177.27C177.03 177.9 176.71 178.24 176.08 178.29C174.45 178.39 170.47 178.44 164.11 178.44C158.68 178.44 155.31 178.39 154 178.29C153.71 178.27 153.46 178.16 153.25 177.96C153.04 177.77 152.94 177.52 152.94 177.23L152.96 177.25Z" fill="white"/>
<path d="M191.81 166.6C191.81 162.36 193.13 158.96 195.76 156.41C198.39 153.85 201.85 152.58 206.15 152.58C209.3 152.58 211.99 153.14 214.23 154.25C214.59 154.47 214.78 154.8 214.78 155.23V155.48C214.71 156.01 214.59 157.07 214.42 158.66C214.25 160.25 214.13 161.31 214.06 161.84C214.01 162.25 213.89 162.48 213.7 162.53C213.51 162.58 213.38 162.6 213.34 162.6C213.1 162.6 212.87 162.48 212.65 162.24C210.98 160.57 208.99 159.73 206.68 159.73C204.98 159.73 203.67 160.27 202.75 161.35C201.83 162.43 201.37 164 201.37 166.06C201.37 167.66 201.88 168.86 202.9 169.66C203.92 170.46 205.32 170.86 207.12 170.86C210.27 170.86 212.94 169.76 215.12 167.55C215.29 167.31 215.5 167.19 215.74 167.19C215.84 167.19 216 167.23 216.23 167.3C216.46 167.37 216.59 167.66 216.61 168.17C216.68 169.07 216.8 171.63 216.97 175.87V175.94C216.97 176.38 216.75 176.72 216.32 176.96C215.18 177.37 213.62 177.74 211.65 178.07C209.67 178.4 207.81 178.56 206.07 178.56C196.59 178.56 191.85 174.58 191.85 166.61L191.81 166.6Z" fill="white"/>
<path d="M221.6 177.29C221.6 169.59 221.91 161.75 222.55 153.78C222.57 153.54 222.68 153.33 222.86 153.14C223.04 152.96 223.27 152.86 223.53 152.83C225.3 152.73 229.16 152.68 235.1 152.68C241.99 152.68 245.43 154.61 245.43 158.46C245.43 160.23 244.72 161.76 243.3 163.06C241.88 164.36 239.97 165.21 237.57 165.62C237.33 165.64 237.18 165.7 237.12 165.78C237.06 165.86 237.03 165.94 237.03 166.02C237.03 166.1 237.07 166.18 237.14 166.27C237.21 166.37 237.37 166.43 237.61 166.45C240.2 166.81 242.32 167.89 243.96 169.68C245.6 171.47 246.52 173.96 246.74 177.13V177.24C246.74 177.51 246.64 177.74 246.45 177.93C246.26 178.12 246 178.24 245.69 178.29C244.65 178.39 243.23 178.44 241.43 178.44C239.49 178.44 238.05 178.39 237.1 178.29C236.4 178.19 236.05 177.84 236.05 177.24C236.03 175.01 235.64 173.01 234.9 171.24C234.16 169.47 233.25 168.41 232.15 168.04C232.08 168.02 232 168 231.93 168C231.71 168 231.51 168.13 231.33 168.38C231.15 168.63 231.06 169.03 231.06 169.56V170.03C231.06 171.73 231.29 174.09 231.75 177.11C231.77 177.18 231.79 177.26 231.79 177.33C231.79 177.52 231.69 177.72 231.5 177.91C231.31 178.1 231.05 178.22 230.74 178.27C229.67 178.37 228.23 178.42 226.41 178.42C224.74 178.42 223.48 178.37 222.63 178.27C222.34 178.22 222.1 178.11 221.9 177.92C221.71 177.74 221.61 177.51 221.61 177.25L221.6 177.29ZM231.13 163.95C231.15 164.46 231.38 164.71 231.82 164.71C231.94 164.71 232.1 164.69 232.29 164.64C233.58 164.4 234.57 164.02 235.27 163.5C235.97 162.98 236.32 162.39 236.32 161.74C236.32 160.46 235.25 159.81 233.12 159.81C232.63 159.81 232.28 159.82 232.06 159.85C231.45 159.9 231.15 160.24 231.15 160.87C231.13 161.77 231.11 162.52 231.11 163.12V163.96L231.13 163.95Z" fill="white"/>
<path d="M251.61 177.25C251.71 167.63 252.02 159.81 252.56 153.78C252.63 153.22 252.98 152.92 253.61 152.87C255.14 152.77 258.23 152.72 262.89 152.72C267.55 152.72 270.47 152.77 272.31 152.87C272.92 152.92 273.26 153.25 273.33 153.85C273.45 155.76 273.54 158.15 273.58 161.01C273.58 161.47 273.47 161.74 273.25 161.81C273.03 161.88 272.89 161.92 272.81 161.92C272.54 161.92 272.28 161.8 272.01 161.56C270 159.99 267.52 159.2 264.59 159.2C263.43 159.2 262.53 159.39 261.9 159.76C261.27 160.14 260.95 160.63 260.95 161.23V161.41C260.95 162.52 262.16 163.08 264.59 163.08C265.07 163.08 265.6 163.07 266.15 163.04C266.71 163.02 267.33 162.99 268.02 162.95C268.71 162.91 269.26 162.88 269.68 162.86H269.79C270.06 162.86 270.29 162.94 270.5 163.11C270.71 163.28 270.81 163.51 270.81 163.8L270.77 166.74C270.77 167.1 270.68 167.33 270.5 167.41C270.32 167.49 270.18 167.54 270.08 167.54C269.93 167.54 269.78 167.48 269.61 167.36C268.06 166.61 266.46 166.23 264.81 166.23H264.66C262.19 166.28 260.95 167.04 260.95 168.52V169.1C260.95 170.02 261.38 170.72 262.24 171.19C263.1 171.66 264.28 171.9 265.79 171.9C267.68 171.9 269.18 171.62 270.3 171.06C271.42 170.5 272.45 169.51 273.39 168.08C273.54 167.84 273.69 167.7 273.86 167.66C274.03 167.62 274.15 167.61 274.22 167.61C274.39 167.61 274.57 167.68 274.77 167.81C274.96 167.94 275.07 168.17 275.1 168.48C275.37 170.71 275.56 173.64 275.68 177.27C275.68 177.9 275.36 178.24 274.73 178.29C273.1 178.39 269.12 178.44 262.76 178.44C257.33 178.44 253.96 178.39 252.65 178.29C252.36 178.27 252.11 178.16 251.9 177.96C251.69 177.77 251.59 177.52 251.59 177.23L251.61 177.25Z" fill="white"/>
<path d="M280.31 177.14C281.01 173.05 282.06 168.81 283.46 164.44C284.85 160.07 286.24 156.42 287.62 153.48C287.74 153.14 288.03 152.93 288.49 152.86C289.39 152.76 291.13 152.71 293.73 152.71C296.33 152.71 298.13 152.76 299.08 152.86C299.54 152.93 299.83 153.14 299.95 153.48C301.33 156.39 302.71 160.03 304.1 164.4C305.48 168.77 306.52 173.03 307.23 177.17C307.25 177.27 307.27 177.35 307.27 177.42C307.27 177.64 307.2 177.83 307.05 178C306.9 178.17 306.67 178.27 306.36 178.29C305.41 178.39 304.02 178.44 302.18 178.44C300.43 178.44 299.09 178.39 298.14 178.29C297.87 178.24 297.65 178.13 297.49 177.94C297.32 177.76 297.24 177.55 297.24 177.3V177.19C297.26 176.73 297.28 176.27 297.28 175.81C297.28 175.04 297.24 174.27 297.17 173.52C296.98 172.33 296.08 171.72 294.48 171.67H293.1C291.52 171.72 290.64 172.34 290.44 173.52C290.34 174.2 290.29 174.9 290.29 175.63C290.29 176.16 290.31 176.7 290.36 177.23V177.3C290.36 177.54 290.27 177.75 290.09 177.94C289.91 178.13 289.68 178.24 289.42 178.29C288.45 178.39 286.99 178.44 285.05 178.44C283.81 178.44 282.54 178.39 281.23 178.29C280.89 178.24 280.65 178.13 280.5 177.96C280.35 177.79 280.28 177.6 280.28 177.38C280.28 177.31 280.29 177.22 280.32 177.13L280.31 177.14ZM292.2 167.73C292.44 168 292.85 168.14 293.44 168.17H294.13C295.12 168.12 295.62 167.78 295.62 167.15C295.62 167 295.6 166.85 295.55 166.68C295.36 165.13 294.96 163.18 294.35 160.83C294.18 160.25 293.99 159.96 293.77 159.96C293.55 159.96 293.35 160.25 293.15 160.83C292.62 163.08 292.23 165.03 291.99 166.68C291.94 166.83 291.92 166.96 291.92 167.08C291.92 167.35 292.02 167.56 292.21 167.73H292.2Z" fill="white"/>
<path d="M313.59 153.78C313.71 153.25 314.06 152.94 314.64 152.87C315.54 152.77 316.9 152.72 318.71 152.72C320.41 152.72 321.7 152.77 322.6 152.87C323.5 152.99 324.08 153.46 324.35 154.29C324.45 154.68 324.65 155.56 324.97 156.92C325.28 158.29 325.53 159.28 325.7 159.88C326.45 162.55 327.17 163.88 327.85 163.88C328.48 163.88 329.16 162.61 329.89 160.06C330.81 156.35 331.3 154.43 331.35 154.28C331.57 153.46 332.14 152.98 333.06 152.86C333.96 152.76 335.24 152.71 336.92 152.71C338.6 152.71 339.99 152.76 341.03 152.86C341.61 152.93 341.96 153.24 342.09 153.77C343.35 162.73 344.07 170.53 344.24 177.17C344.24 177.82 343.9 178.2 343.22 178.3C342.32 178.4 341.05 178.45 339.4 178.45C337.27 178.45 335.86 178.4 335.18 178.3C334.53 178.2 334.2 177.88 334.2 177.32V177.14C334.47 174.79 334.6 172.49 334.6 170.24V169.22C334.55 166.26 334.21 164.79 333.58 164.79C333.12 164.79 332.65 165.63 332.16 167.3C332.09 167.54 331.99 167.93 331.87 168.46C331.8 168.68 331.75 168.84 331.72 168.93C331.6 169.37 331.4 170.03 331.14 170.91C330.87 171.79 330.68 172.45 330.56 172.89C330.03 174.61 329.12 175.47 327.83 175.47C326.64 175.47 325.76 174.61 325.17 172.89C324.73 171.53 324.32 170.16 323.93 168.78C323.61 167.5 323.32 166.53 323.04 165.87C322.76 165.22 322.45 164.89 322.11 164.89C321.48 164.89 321.14 166.38 321.09 169.36V170.23C321.09 172.22 321.22 174.52 321.49 177.13V177.31C321.49 177.87 321.16 178.19 320.51 178.29C319.83 178.39 318.45 178.44 316.36 178.44C314.71 178.44 313.41 178.39 312.47 178.29C311.79 178.19 311.45 177.82 311.45 177.16C311.62 170.45 312.33 162.65 313.6 153.76L313.59 153.78Z" fill="white"/>
<path d="M419.14 7.91C420.01 7.39 420.44 6.56001 420.44 5.42001C420.44 4.51001 420.17 3.76 419.65 3.22C419.11 2.68 418.43 2.41 417.56 2.41H414.25V12.35H416.42V8.73H416.98C417.48 8.73 417.79 9 417.89 9.54L418.37 12.36H420.65L420.11 9.36C419.97 8.57 419.65 8.12 419.14 7.97V7.91ZM416.43 7.02V4.41H417.11C417.46 4.41 417.75 4.51 417.98 4.76C418.19 5.01 418.31 5.32 418.31 5.69C418.31 6.08 418.19 6.41 417.98 6.64C417.75 6.89 417.46 7.01 417.11 7.01H416.43V7.02Z" fill="white"/>
<path d="M417.47 14.78C413.4 14.78 410.08 11.47 410.08 7.39C410.08 3.31 413.39 0 417.47 0C421.55 0 424.86 3.31 424.86 7.39C424.86 11.47 421.55 14.78 417.47 14.78ZM417.47 0.740005C413.8 0.740005 410.81 3.73 410.81 7.4C410.81 11.07 413.8 14.06 417.47 14.06C421.14 14.06 424.13 11.07 424.13 7.4C424.13 3.73 421.14 0.740005 417.47 0.740005Z" fill="white"/>
</svg>
